# xmcd
#
# Track frame offsets: 
#        150
#        15010
#        33539
#        53360
#        75908
#        95180
#        109567
#        117825
#        137173
#        158516
#        180505
#        193100
#        204190
#        223198
#        236279
#        247214
#        277914
#
# Disc length: 4534 seconds
#
# Revision: 0
# Processed by: cddbd v1.5.2PL0 Copyright (c) Steve Scherf et al.
# Submitted via: ExactAudioCopy v0.99pb5
#
DISCID=d311b411
DTITLE=Michal Tucny - Jizansky rok plus BONUS
DYEAR=2009
DGENRE=Country
TTITLE0=Jizansky rok
TTITLE1=Pristup k ohni
TTITLE2=Jednou jsem taky pracoval
TTITLE3=Cerny Bill a Bila Nelly
TTITLE4=Dlouhá Pout (The Man And The Donkey)
TTITLE5=Hello Mr.Déja vu
TTITLE6=Stáda bílých mustangu
TTITLE7=Poulicní zpevák
TTITLE8=More brázdím (Sail On)
TTITLE9=Viva Las Vegas
TTITLE10=Já budu zít naveky (Live Forever)
TTITLE11=Cesty toulavý (On The Road Again)
TTITLE12=Bájecná zenská (Good Hearted Woman)
TTITLE13=Desperát (Highway Man)
TTITLE14=Obyèejná streka (Bloody Mary Morning)
TTITLE15=Vsichni jsou uz v Mexiku (They All Went To Mexico)
TTITLE16=Jizansky rok
EXTD=
EXTT0=
EXTT1=
EXTT2=
EXTT3=
EXTT4=
EXTT5=
EXTT6=
EXTT7=
EXTT8=
EXTT9=
EXTT10=
EXTT11=
EXTT12=
EXTT13=
EXTT14=
EXTT15=
EXTT16=
PLAYORDER=
